<svg width="44" height="44" viewBox="0 0 44 44" fill="none" xmlns="http://www.w3.org/2000/svg">
<path d="M31.1064 26.3392L29.0594 22.5599V18.625C29.0594 14.6963 25.8631 11.5 21.9344 11.5C18.0057 11.5 14.8094 14.6963 14.8094 18.625V22.5599L12.7623 26.3391C12.6695 26.5105 12.6227 26.703 12.6267 26.8979C12.6307 27.0927 12.6852 27.2832 12.7849 27.4507C12.8846 27.6181 13.0262 27.7568 13.1956 27.8531C13.365 27.9494 13.5566 28 13.7515 28H17.8266C17.8152 28.1247 17.8095 28.2498 17.8094 28.375C17.8094 29.469 18.244 30.5182 19.0176 31.2918C19.7911 32.0654 20.8404 32.5 21.9344 32.5C23.0284 32.5 24.0776 32.0654 24.8512 31.2918C25.6248 30.5182 26.0594 29.469 26.0594 28.375C26.0594 28.2484 26.0533 28.1236 26.0422 28H30.1172C30.3121 28 30.5036 27.9493 30.6731 27.853C30.8425 27.7567 30.984 27.6181 31.0837 27.4506C31.1834 27.2832 31.2379 27.0927 31.2419 26.8979C31.2458 26.7031 31.1991 26.5105 31.1063 26.3392H31.1064ZM24.5594 28.375C24.5597 28.7357 24.4856 29.0927 24.3419 29.4235C24.1981 29.7543 23.9876 30.052 23.7237 30.2979C23.4597 30.5438 23.1479 30.7326 22.8077 30.8526C22.4675 30.9726 22.1062 31.0212 21.7464 30.9954C21.3866 30.9696 21.036 30.8698 20.7164 30.7025C20.3969 30.5351 20.1152 30.3036 19.8891 30.0226C19.663 29.7415 19.4972 29.4168 19.4022 29.0688C19.3071 28.7208 19.2848 28.357 19.3367 28H24.5321C24.5502 28.1242 24.5593 28.2495 24.5594 28.375ZM14.3811 26.5L16.3094 22.9401V18.625C16.3094 17.1332 16.902 15.7024 17.9569 14.6475C19.0118 13.5926 20.4426 13 21.9344 13C23.4263 13 24.857 13.5926 25.9119 14.6475C26.9668 15.7024 27.5594 17.1332 27.5594 18.625V22.9401L29.4877 26.5H14.3811Z" fill="black"/>
</svg>
