<svg width="25" height="25" viewBox="0 0 25 25" fill="none" xmlns="http://www.w3.org/2000/svg">
<g clip-path="url(#clip0_523_1716)">
<path d="M22.625 2.40063H18.5V-0.224365H17V2.40063H8V-0.224365H6.5V2.40063H2.375C2.07674 2.40098 1.79079 2.51962 1.57989 2.73052C1.36899 2.94143 1.25035 3.22737 1.25 3.52564V21.9668C1.25035 22.2651 1.36899 22.551 1.57989 22.762C1.79079 22.9729 2.07674 23.0915 2.375 23.0918H22.625C22.9233 23.0915 23.2092 22.9729 23.4201 22.762C23.631 22.551 23.7497 22.2651 23.75 21.9668V3.52564C23.7497 3.22737 23.631 2.94143 23.4201 2.73052C23.2092 2.51962 22.9233 2.40098 22.625 2.40063ZM22.25 21.5918H2.75V3.90063H6.5V5.77563H8V3.90063H17V5.77563H18.5V3.90063H22.25V21.5918Z" fill="#FF8527"/>
<path d="M5.75 11.0918H7.25V12.5918H5.75V11.0918Z" fill="#FF8527"/>
<path d="M9.875 11.0918H11.375V12.5918H9.875V11.0918Z" fill="#FF8527"/>
<path d="M13.625 11.0918H15.125V12.5918H13.625V11.0918Z" fill="#FF8527"/>
<path d="M17.75 11.0918H19.25V12.5918H17.75V11.0918Z" fill="#FF8527"/>
<path d="M5.75 14.4668H7.25V15.9668H5.75V14.4668Z" fill="#FF8527"/>
<path d="M9.875 14.4668H11.375V15.9668H9.875V14.4668Z" fill="#FF8527"/>
<path d="M13.625 14.4668H15.125V15.9668H13.625V14.4668Z" fill="#FF8527"/>
<path d="M17.75 14.4668H19.25V15.9668H17.75V14.4668Z" fill="#FF8527"/>
<path d="M5.75 17.8418H7.25V19.3418H5.75V17.8418Z" fill="#FF8527"/>
<path d="M9.875 17.8418H11.375V19.3418H9.875V17.8418Z" fill="#FF8527"/>
<path d="M13.625 17.8418H15.125V19.3418H13.625V17.8418Z" fill="#FF8527"/>
<path d="M17.75 17.8418H19.25V19.3418H17.75V17.8418Z" fill="#FF8527"/>
</g>
<defs>
<clipPath id="clip0_523_1716">
<rect width="24" height="24" fill="white" transform="translate(0.5 0.591797)"/>
</clipPath>
</defs>
</svg>
