<svg width="24" height="24" viewBox="0 0 24 24" fill="none" xmlns="http://www.w3.org/2000/svg">
<path d="M7.5 4.50183V6.00183H21.75V8.97112L20.0859 14.2518H7.02806L5.15306 0.75H0.75V2.25H3.84694L5.72194 15.7518H21.186L23.25 9.20184V4.50183H7.5Z" fill="#FF8527"/>
<path d="M8.2959 17.2661C7.50053 17.267 6.73799 17.5834 6.17558 18.1458C5.61317 18.7082 5.2968 19.4707 5.2959 20.2661C5.2959 21.0618 5.61197 21.8248 6.17458 22.3874C6.73719 22.95 7.50025 23.2661 8.2959 23.2661C9.09155 23.2661 9.85461 22.95 10.4172 22.3874C10.9798 21.8248 11.2959 21.0618 11.2959 20.2661C11.295 19.4707 10.9786 18.7082 10.4162 18.1458C9.85382 17.5834 9.09127 17.267 8.2959 17.2661ZM8.2959 21.7661C7.99923 21.7661 7.70922 21.6781 7.46254 21.5133C7.21587 21.3485 7.02361 21.1142 6.91008 20.8401C6.79655 20.566 6.76684 20.2644 6.82472 19.9735C6.8826 19.6825 7.02546 19.4152 7.23524 19.2055C7.44502 18.9957 7.71229 18.8528 8.00326 18.7949C8.29423 18.7371 8.59583 18.7668 8.86992 18.8803C9.14401 18.9938 9.37828 19.1861 9.5431 19.4328C9.70792 19.6794 9.7959 19.9694 9.7959 20.2661C9.79543 20.6638 9.63724 21.0451 9.35604 21.3263C9.07484 21.6075 8.69358 21.7656 8.2959 21.7661Z" fill="#FF8527"/>
<path d="M18.7959 17.2661C18.0005 17.267 17.238 17.5834 16.6756 18.1458C16.1132 18.7082 15.7968 19.4707 15.7959 20.2661C15.7959 21.0618 16.112 21.8248 16.6746 22.3874C17.2372 22.95 18.0002 23.2661 18.7959 23.2661C19.5915 23.2661 20.3546 22.95 20.9172 22.3874C21.4798 21.8248 21.7959 21.0618 21.7959 20.2661C21.795 19.4707 21.4786 18.7082 20.9162 18.1458C20.3538 17.5834 19.5913 17.267 18.7959 17.2661ZM18.7959 21.7661C18.4992 21.7661 18.2092 21.6781 17.9625 21.5133C17.7159 21.3485 17.5236 21.1142 17.4101 20.8401C17.2965 20.566 17.2668 20.2644 17.3247 19.9735C17.3826 19.6825 17.5255 19.4152 17.7352 19.2055C17.945 18.9957 18.2123 18.8528 18.5033 18.7949C18.7942 18.7371 19.0958 18.7668 19.3699 18.8803C19.644 18.9938 19.8783 19.1861 20.0431 19.4328C20.2079 19.6794 20.2959 19.9694 20.2959 20.2661C20.2954 20.6638 20.1372 21.0451 19.856 21.3263C19.5748 21.6075 19.1936 21.7656 18.7959 21.7661Z" fill="#FF8527"/>
</svg>
