<svg width="21" height="20" viewBox="0 0 21 20" fill="none" xmlns="http://www.w3.org/2000/svg">
<path d="M8.9165 6.25H7.0415V1.875H5.7915V6.25H3.9165V1.875H2.6665V6.71875C2.6665 8.49629 4.02021 9.97629 5.7915 10.2623V18.4375H7.0415V10.2623C8.81279 9.97629 10.1665 8.49629 10.1665 6.71875V1.875H8.9165V6.25ZM6.4165 9.0625C5.33014 9.0625 4.40385 8.4093 4.05986 7.5H8.77314C8.42916 8.4093 7.50287 9.0625 6.4165 9.0625Z" fill="#FF8527"/>
<path d="M16.3215 1.56977C15.0428 1.76647 13.8768 2.41437 13.0344 3.39624C12.1921 4.37811 11.729 5.62908 11.729 6.92277V13.4375H15.7915V18.4375H17.0415V1.45898L16.3215 1.56977ZM15.7915 12.1875H12.979V6.92277C12.9747 6.05368 13.2441 5.20527 13.7489 4.49779C14.2537 3.7903 14.9683 3.25962 15.7915 2.98094V12.1875Z" fill="#FF8527"/>
</svg>
