<svg width="25" height="25" viewBox="0 0 25 25" fill="none" xmlns="http://www.w3.org/2000/svg">
<path d="M12.5 7.3418C13.0933 7.3418 13.6734 7.16585 14.1667 6.83621C14.6601 6.50656 15.0446 6.03803 15.2716 5.48985C15.4987 4.94167 15.5581 4.33847 15.4424 3.75653C15.3266 3.17458 15.0409 2.64004 14.6213 2.22048C14.2018 1.80092 13.6672 1.5152 13.0853 1.39944C12.5033 1.28369 11.9001 1.3431 11.3519 1.57016C10.8038 1.79722 10.3352 2.18174 10.0056 2.67509C9.67595 3.16843 9.5 3.74845 9.5 4.3418C9.50089 5.13717 9.81725 5.89972 10.3797 6.46213C10.9421 7.02455 11.7046 7.34091 12.5 7.3418ZM12.5 2.8418C12.7967 2.8418 13.0867 2.92977 13.3334 3.09459C13.58 3.25942 13.7723 3.49368 13.8858 3.76777C13.9994 4.04186 14.0291 4.34346 13.9712 4.63443C13.9133 4.92541 13.7704 5.19268 13.5607 5.40246C13.3509 5.61224 13.0836 5.7551 12.7926 5.81298C12.5017 5.87085 12.2001 5.84115 11.926 5.72762C11.6519 5.61409 11.4176 5.42183 11.2528 5.17515C11.088 4.92848 11 4.63847 11 4.3418C11.0004 3.94411 11.1586 3.56284 11.4398 3.28163C11.721 3.00042 12.1023 2.84224 12.5 2.8418Z" fill="#B3B4BA"/>
<path d="M12.5 17.8418C11.9067 17.8418 11.3266 18.0177 10.8333 18.3474C10.3399 18.677 9.95543 19.1456 9.72836 19.6937C9.5013 20.2419 9.44189 20.8451 9.55765 21.4271C9.6734 22.009 9.95912 22.5436 10.3787 22.9631C10.7982 23.3827 11.3328 23.6684 11.9147 23.7842C12.4967 23.8999 13.0999 23.8405 13.6481 23.6134C14.1962 23.3864 14.6648 23.0019 14.9944 22.5085C15.3241 22.0152 15.5 21.4351 15.5 20.8418C15.4991 20.0464 15.1828 19.2839 14.6203 18.7215C14.0579 18.159 13.2954 17.8427 12.5 17.8418ZM12.5 22.3418C12.2033 22.3418 11.9133 22.2538 11.6666 22.089C11.42 21.9242 11.2277 21.6899 11.1142 21.4158C11.0007 21.1417 10.9709 20.8401 11.0288 20.5492C11.0867 20.2582 11.2296 19.9909 11.4393 19.7811C11.6491 19.5714 11.9164 19.4285 12.2074 19.3706C12.4983 19.3127 12.7999 19.3424 13.074 19.456C13.3481 19.5695 13.5824 19.7618 13.7472 20.0084C13.912 20.2551 14 20.5451 14 20.8418C13.9996 21.2395 13.8414 21.6208 13.5602 21.902C13.279 22.1832 12.8977 22.3414 12.5 22.3418Z" fill="#B3B4BA"/>
<path d="M12.5 9.5918C11.9067 9.5918 11.3266 9.76774 10.8333 10.0974C10.3399 10.427 9.95543 10.8956 9.72836 11.4437C9.5013 11.9919 9.44189 12.5951 9.55765 13.1771C9.6734 13.759 9.95912 14.2936 10.3787 14.7131C10.7982 15.1327 11.3328 15.4184 11.9147 15.5342C12.4967 15.6499 13.0999 15.5905 13.6481 15.3634C14.1962 15.1364 14.6648 14.7519 14.9944 14.2585C15.3241 13.7652 15.5 13.1851 15.5 12.5918C15.4991 11.7964 15.1828 11.0339 14.6203 10.4715C14.0579 9.90905 13.2954 9.59269 12.5 9.5918ZM12.5 14.0918C12.2033 14.0918 11.9133 14.0038 11.6666 13.839C11.42 13.6742 11.2277 13.4399 11.1142 13.1658C11.0007 12.8917 10.9709 12.5901 11.0288 12.2992C11.0867 12.0082 11.2296 11.7409 11.4393 11.5311C11.6491 11.3214 11.9164 11.1785 12.2074 11.1206C12.4983 11.0627 12.7999 11.0924 13.074 11.206C13.3481 11.3195 13.5824 11.5118 13.7472 11.7584C13.912 12.0051 14 12.2951 14 12.5918C13.9996 12.9895 13.8414 13.3708 13.5602 13.652C13.279 13.9332 12.8977 14.0914 12.5 14.0918Z" fill="#B3B4BA"/>
</svg>
