<svg width="25" height="25" viewBox="0 0 25 25" fill="none" xmlns="http://www.w3.org/2000/svg">
<path d="M22.4583 5H18.3333V2.375H16.8333V5H7.83325V2.375H6.33325V5H2.20825C1.90999 5.00035 1.62404 5.11899 1.41314 5.32989C1.20224 5.54079 1.0836 5.82674 1.08325 6.125V21.875C1.0836 22.1733 1.20224 22.4592 1.41314 22.6701C1.62404 22.881 1.90999 22.9997 2.20825 23H22.4583C22.7565 22.9997 23.0425 22.881 23.2534 22.6701C23.4643 22.4592 23.5829 22.1733 23.5833 21.875V6.125C23.5829 5.82674 23.4643 5.54079 23.2534 5.32989C23.0425 5.11899 22.7565 5.00035 22.4583 5ZM22.0833 21.5H2.58325V6.5H6.33325V8.375H7.83325V6.5H16.8333V8.375H18.3333V6.5H22.0833V21.5Z" fill="black"/>
<path d="M11.7425 15.1894L9.19321 12.6401L8.13257 13.7008L11.7425 17.3107L17.6307 11.4225L16.57 10.3618L11.7425 15.1894Z" fill="black"/>
</svg>
