<svg width="24" height="24" viewBox="0 0 24 24" fill="none" xmlns="http://www.w3.org/2000/svg">
<path d="M22.4812 18.829L18.6804 15.0282L15.7569 13.8203C16.7304 12.436 17.2519 10.7846 17.25 9.09228C17.25 4.54321 13.5491 0.842285 9 0.842285C4.45092 0.842285 0.75 4.54321 0.75 9.09228C0.75 13.6414 4.45092 17.3423 9 17.3423C10.707 17.3442 12.3721 16.8137 13.7634 15.8246L14.9681 18.7402L18.7687 22.5412C19.0125 22.785 19.3019 22.9784 19.6204 23.1103C19.9388 23.2422 20.2802 23.3101 20.6249 23.3102C20.9696 23.3102 21.311 23.2423 21.6295 23.1104C21.948 22.9785 22.2374 22.7851 22.4811 22.5414C22.7249 22.2976 22.9183 22.0082 23.0502 21.6897C23.1821 21.3713 23.25 21.0299 23.25 20.6852C23.2501 20.3405 23.1822 19.9991 23.0503 19.6806C22.9183 19.3621 22.725 19.0727 22.4812 18.829V18.829ZM2.25 9.09228C2.25 5.37041 5.27812 2.34229 9 2.34229C12.7219 2.34229 15.75 5.37041 15.75 9.09228C15.75 12.8142 12.7219 15.8423 9 15.8423C5.27812 15.8423 2.25 12.8142 2.25 9.09228ZM21.4205 21.4806C21.2094 21.6913 20.9233 21.8096 20.625 21.8096C20.3267 21.8096 20.0406 21.6913 19.8295 21.4806L16.2402 17.8913L15.1201 15.1803L17.8312 16.3003L21.4206 19.8896C21.6313 20.1008 21.7495 20.3869 21.7495 20.6851C21.7495 20.9834 21.6312 21.2695 21.4205 21.4806V21.4806Z" fill="#636773"/>
</svg>
