<svg width="21" height="21" viewBox="0 0 21 21" fill="none" xmlns="http://www.w3.org/2000/svg">
<g clip-path="url(#clip0_123_1608)">
<path d="M4.25003 18.7423C4.24815 18.9887 4.34407 19.2257 4.51673 19.4015C4.6894 19.5772 4.92472 19.6773 5.17108 19.6798H15.829C16.0753 19.6773 16.3107 19.5772 16.4833 19.4015C16.656 19.2257 16.7519 18.9887 16.75 18.7423V6.24231H4.25003V18.7423ZM5.50003 7.49231H15.5V18.4298H5.50003V7.49231Z" fill="#636773"/>
<path d="M7.0625 8.74231H8.3125V16.5548H7.0625V8.74231Z" fill="#636773"/>
<path d="M9.875 8.74231H11.125V16.5548H9.875V8.74231Z" fill="#636773"/>
<path d="M12.6875 8.74231H13.9375V16.5548H12.6875V8.74231Z" fill="#636773"/>
<path d="M13.3125 3.74231V1.86731C13.3125 1.34161 12.9419 0.92981 12.4688 0.92981H8.53125C8.05813 0.92981 7.6875 1.34161 7.6875 1.86731V3.74231H3V4.99231H18V3.74231H13.3125ZM8.9375 2.17981H12.0625V3.74231H8.9375V2.17981Z" fill="#636773"/>
</g>
<defs>
<clipPath id="clip0_123_1608">
<rect width="20" height="20" fill="white" transform="translate(0.5 0.30481)"/>
</clipPath>
</defs>
</svg>
