<svg width="24" height="25" viewBox="0 0 24 25" fill="none" xmlns="http://www.w3.org/2000/svg">
<path d="M21.2402 4.2955C20.6828 3.73808 20.021 3.29597 19.2927 2.99444C18.5643 2.6929 17.7837 2.53785 16.9954 2.53815C16.207 2.53844 15.4265 2.69408 14.6984 2.99616C13.9703 3.29824 13.3088 3.74085 12.7518 4.29869L12.0247 5.03462L11.3037 4.30028L11.299 4.29559C10.7418 3.73844 10.0804 3.29648 9.35245 2.99495C8.62449 2.69341 7.84427 2.53822 7.05634 2.53822C6.2684 2.53822 5.48818 2.69341 4.76023 2.99495C4.03227 3.29648 3.37083 3.73844 2.81368 4.29559L2.48977 4.6195C1.36456 5.74472 0.732422 7.27084 0.732422 8.86213C0.732422 10.4534 1.36456 11.9795 2.48977 13.1048L11.0385 21.6534L12.0039 22.6649L12.0269 22.6418L12.0519 22.6668L12.9564 21.7125L21.5641 13.1046C22.6877 11.9785 23.3187 10.4527 23.3187 8.86199C23.3187 7.27126 22.6877 5.74547 21.5641 4.61936L21.2402 4.2955ZM20.5033 12.044L12.0269 20.5205L3.55037 12.044C2.70646 11.2001 2.23236 10.0555 2.23236 8.86201C2.23236 7.66855 2.70646 6.52396 3.55037 5.68005L3.87432 5.35614C4.71782 4.51265 5.86172 4.03858 7.0546 4.03813C8.24748 4.03768 9.39173 4.51089 10.2359 5.35375L12.0215 7.17189L13.8156 5.35614C14.2334 4.93827 14.7295 4.6068 15.2755 4.38065C15.8214 4.15451 16.4066 4.03811 16.9976 4.03811C17.5885 4.03811 18.1737 4.15451 18.7196 4.38065C19.2656 4.6068 19.7617 4.93827 20.1796 5.35614L20.5035 5.68C21.3461 6.52461 21.8193 7.66897 21.8193 8.86203C21.8192 10.0551 21.346 11.1994 20.5033 12.044Z" fill="#B3B4BA"/>
</svg>
