<svg width="21" height="21" viewBox="0 0 21 21" fill="none" xmlns="http://www.w3.org/2000/svg">
<g clip-path="url(#clip0_123_1592)">
<path d="M1.65851 19.1427L1.66191 19.1461C1.75202 19.2369 1.8592 19.3089 1.97726 19.3581C2.09533 19.4074 2.22196 19.4328 2.34988 19.4329C2.45751 19.4328 2.5644 19.415 2.66628 19.3803L8.21339 17.4986L18.8579 6.85408C19.5086 6.2033 19.8742 5.32067 19.8742 4.40036C19.8741 3.48005 19.5085 2.59745 18.8577 1.94672C18.2069 1.29599 17.3243 0.930441 16.404 0.930481C15.4837 0.930521 14.6011 1.29615 13.9503 1.94694L3.30581 12.5915L1.42425 18.1384C1.36498 18.3109 1.35552 18.4966 1.39695 18.6742C1.43839 18.8519 1.52904 19.0142 1.65851 19.1427ZM14.8343 2.8308C15.2512 2.4171 15.815 2.18546 16.4023 2.18658C16.9896 2.18771 17.5526 2.42152 17.9678 2.83682C18.3831 3.25212 18.6169 3.81506 18.618 4.40237C18.6192 4.98968 18.3875 5.5535 17.9738 5.97037L16.574 7.37014L13.4344 4.23057L14.8343 2.8308ZM4.39605 13.269L12.5506 5.11444L15.6901 8.25401L7.53558 16.4085L2.78425 18.0203L4.39605 13.269Z" fill="#636773"/>
</g>
<defs>
<clipPath id="clip0_123_1592">
<rect width="20" height="20" fill="white" transform="translate(0.5 0.30481)"/>
</clipPath>
</defs>
</svg>
