<svg width="17" height="17" viewBox="0 0 17 17" fill="none" xmlns="http://www.w3.org/2000/svg">
<g clip-path="url(#clip0_523_2652)">
<path d="M13.3617 1.88891C13.8472 2.08993 14.2884 2.38467 14.66 2.75629L14.876 2.97219C15.625 3.72293 16.0456 4.74012 16.0456 5.80061C16.0456 6.8611 15.625 7.87829 14.876 8.62904L9.13748 14.3676L8.53448 15.0038L8.51782 14.9872L8.50248 15.0025L7.85888 14.3282L2.15973 8.62913C1.40958 7.87898 0.988159 6.86157 0.988159 5.80071C0.988159 4.73984 1.40958 3.72243 2.15973 2.97229L2.37566 2.75635C2.7471 2.38491 3.18806 2.09027 3.67336 1.88925C4.15867 1.68823 4.67881 1.58476 5.2041 1.58476C5.72939 1.58476 6.24954 1.68823 6.73484 1.88925C7.22015 2.09027 7.6611 2.38491 8.03254 2.75635L8.03566 2.75947L8.51635 3.24904L9.00107 2.75841C9.3724 2.38652 9.81338 2.09145 10.2988 1.89006C10.7842 1.68867 11.3046 1.58491 11.8301 1.58472C12.3557 1.58452 12.8761 1.68789 13.3617 1.88891Z" fill="#FF8527"/>
</g>
<defs>
<clipPath id="clip0_523_2652">
<rect width="16" height="16" fill="white" transform="translate(0.5 0.287109)"/>
</clipPath>
</defs>
</svg>
