<svg width="50" height="24" viewBox="0 0 50 24" fill="none" xmlns="http://www.w3.org/2000/svg">
<path d="M35.0156 10.1461L25.7068 1.582C25.4042 1.30359 25.0056 1.15292 24.5945 1.16148C24.1834 1.17004 23.7915 1.33717 23.5008 1.62794L14.9394 10.1894L14.5 10.6287V23.25H22.75V15.375H27.25V23.25H35.5V10.5918L35.0156 10.1461ZM24.6268 2.66116C24.64 2.66116 24.6318 2.66402 24.6262 2.6696C24.6203 2.66402 24.6136 2.66116 24.6268 2.66116ZM34 21.75H28.75V15.375C28.75 14.9772 28.592 14.5957 28.3107 14.3144C28.0294 14.0331 27.6478 13.875 27.25 13.875H22.75C22.3522 13.875 21.9706 14.0331 21.6893 14.3144C21.408 14.5957 21.25 14.9772 21.25 15.375V21.75H16V11.25L24.6268 2.68858C24.6274 2.68802 24.6274 2.6875 24.6279 2.68694L34 11.25V21.75Z" fill="black"/>
</svg>
