<svg width="29" height="29" viewBox="0 0 29 29" fill="none" xmlns="http://www.w3.org/2000/svg">
<path d="M23.7401 5.99075C23.1827 5.43333 22.5209 4.99122 21.7925 4.68969C21.0642 4.38815 20.2835 4.2331 19.4952 4.2334C18.7069 4.23369 17.9264 4.38933 17.1983 4.69141C16.4701 4.9935 15.8087 5.4361 15.2517 5.99394L14.5246 6.72988L13.8036 5.99553L13.7989 5.99084C13.2417 5.43369 12.5803 4.99173 11.8523 4.6902C11.1244 4.38867 10.3441 4.23347 9.55621 4.23347C8.76828 4.23347 7.98806 4.38867 7.2601 4.6902C6.53215 4.99173 5.87071 5.43369 5.31356 5.99084L4.98965 6.31475C3.86444 7.43997 3.2323 8.96609 3.2323 10.5574C3.2323 12.1487 3.86444 13.6748 4.98965 14.8L13.5384 23.3487L14.5038 24.3601L14.5268 24.3371L14.5518 24.362L15.4563 23.4077L24.064 14.7999C25.1876 13.6738 25.8185 12.148 25.8185 10.5572C25.8185 8.96651 25.1876 7.44072 24.064 6.31461L23.7401 5.99075ZM23.0032 13.7392L14.5268 22.2158L6.05025 13.7392C5.20634 12.8953 4.73224 11.7507 4.73224 10.5573C4.73224 9.3638 5.20634 8.21921 6.05025 7.3753L6.3742 7.05139C7.2177 6.2079 8.36159 5.73383 9.55448 5.73338C10.7474 5.73293 11.8916 6.20614 12.7357 7.049L14.5214 8.86714L16.3154 7.05139C16.7333 6.63352 17.2294 6.30205 17.7754 6.07591C18.3213 5.84976 18.9065 5.73336 19.4974 5.73336C20.0884 5.73336 20.6736 5.84976 21.2195 6.07591C21.7655 6.30205 22.2616 6.63352 22.6794 7.05139L23.0033 7.37525C23.846 8.21986 24.3192 9.36422 24.3191 10.5573C24.3191 11.7503 23.8458 12.8947 23.0032 13.7392Z" fill="#FF8527"/>
</svg>
