<svg width="48" height="48" viewBox="0 0 48 48" fill="none" xmlns="http://www.w3.org/2000/svg">
<rect width="48" height="48" rx="24" fill="white"/>
<path d="M13.3905 34.6055L13.3945 34.6096C13.5027 34.7185 13.6313 34.805 13.773 34.8641C13.9146 34.9231 14.0666 34.9536 14.2201 34.9537C14.3493 34.9536 14.4775 34.9323 14.5998 34.8907L21.2563 32.6326L34.0298 19.8592C34.8106 19.0782 35.2493 18.0191 35.2492 16.9147C35.2492 15.8103 34.8104 14.7512 34.0295 13.9703C33.2486 13.1895 32.1894 12.7508 31.085 12.7509C29.9807 12.7509 28.9215 13.1897 28.1407 13.9706L15.3672 26.744L13.1093 33.4004C13.0382 33.6074 13.0269 33.8302 13.0766 34.0434C13.1263 34.2565 13.2351 34.4513 13.3905 34.6055ZM29.2014 15.0312C29.7016 14.5348 30.3782 14.2568 31.083 14.2582C31.7878 14.2595 32.4633 14.5401 32.9617 15.0385C33.46 15.5368 33.7406 16.2123 33.7419 16.9171C33.7432 17.6219 33.4652 18.2985 32.9688 18.7987L31.2891 20.4784L27.5216 16.711L29.2014 15.0312ZM16.6755 27.5571L26.4609 17.7716L30.2284 21.5391L20.4429 31.3245L14.7413 33.2587L16.6755 27.5571Z" fill="black"/>
</svg>
