<svg width="21" height="20" viewBox="0 0 21 20" fill="none" xmlns="http://www.w3.org/2000/svg">
<g clip-path="url(#clip0_523_1070)">
<path d="M11.4392 3.73047H10.1892V10.6879L14.7053 12.8343L15.2419 11.7054L11.4392 9.89801V3.73047Z" fill="#FF8527"/>
<path d="M10.8333 0.625C5.6556 0.625 1.45825 4.82234 1.45825 10C1.45825 15.1777 5.6556 19.375 10.8333 19.375C16.0109 19.375 20.2083 15.1777 20.2083 10C20.2083 4.82234 16.0109 0.625 10.8333 0.625ZM10.8333 18.125C6.34595 18.125 2.70825 14.4873 2.70825 10C2.70825 5.5127 6.34595 1.875 10.8333 1.875C15.3206 1.875 18.9583 5.5127 18.9583 10C18.9583 14.4873 15.3206 18.125 10.8333 18.125Z" fill="#FF8527"/>
</g>
<defs>
<clipPath id="clip0_523_1070">
<rect width="20" height="20" fill="white" transform="translate(0.833252)"/>
</clipPath>
</defs>
</svg>
